<?xml version="1.0" encoding="UTF-8"?>
<svg version="1.1" xmlns="http://www.w3.org/2000/svg" width="1080" height="1080">
<path d="M0 0 C356.4 0 712.8 0 1080 0 C1080 356.4 1080 712.8 1080 1080 C723.6 1080 367.2 1080 0 1080 C0 723.6 0 367.2 0 0 Z " fill="#000000" transform="translate(0,0)"/>
<path d="M0 0 C8.86432292 4.60231757 14.95496472 14.39301428 21.09765625 22.00390625 C23.26882827 24.63458557 25.51491357 27.16692424 27.8125 29.6875 C30.83532421 33.00739486 33.73762161 36.38514112 36.5625 39.875 C41.77768515 46.31461993 47.22581752 52.54205403 52.66601562 58.79101562 C55.24887409 61.76605189 57.81306914 64.7569406 60.375 67.75 C60.86589111 68.32339111 61.35678223 68.89678223 61.86254883 69.48754883 C62.85135203 70.64280518 63.84004049 71.79815976 64.82861328 72.95361328 C67.32145524 75.86644046 69.81712766 78.77684061 72.3125 81.6875 C73.3125134 82.85415518 74.31251341 84.02082184 75.3125 85.1875 C75.8075 85.765 76.3025 86.3425 76.8125 86.9375 C90.3125 102.6875 103.8125 118.4375 117.3125 134.1875 C118.05512085 135.05387085 118.05512085 135.05387085 118.81274414 135.93774414 C119.81198396 137.10355104 120.81117023 138.26940386 121.81030273 139.43530273 C124.32149461 142.36550398 126.83363393 145.29488291 129.34765625 148.22265625 C134.6452656 154.39409807 139.92265999 160.58151541 145.17041016 166.79541016 C150.01646642 172.52918764 154.90563781 178.22573153 159.79638672 183.92138672 C162.30350985 186.84192275 164.80787328 189.76482311 167.3125 192.6875 C168.31248659 193.85417816 169.3124866 195.02084482 170.3125 196.1875 C194.5234375 224.43359375 194.5234375 224.43359375 195.89306641 226.03540039 C196.90071252 227.2082145 197.91400323 228.37618945 198.93115234 229.54077148 C199.46434082 230.15380127 199.9975293 230.76683105 200.546875 231.3984375 C201.03124023 231.95192871 201.51560547 232.50541992 202.01464844 233.07568359 C206.31311741 238.4140004 206.92925088 244.01909416 206.70703125 250.64453125 C205.49501315 259.99267086 199.41350688 266.13731559 193.1484375 272.67578125 C190.5088498 275.43890521 188.08267195 278.33324226 185.6875 281.3125 C182.82368217 284.86934136 179.88903672 288.31289052 176.8125 291.6875 C173.69791332 295.10489372 170.7206338 298.5927235 167.8125 302.1875 C164.20217558 306.65026213 160.42822071 310.91469533 156.5625 315.15625 C154.23387947 317.7759481 152.01687053 320.4626531 149.8125 323.1875 C146.20217558 327.65026213 142.42822071 331.91469533 138.5625 336.15625 C136.23387947 338.7759481 134.01687053 341.4626531 131.8125 344.1875 C128.20100866 348.65170457 124.42589306 352.91752114 120.55859375 357.16015625 C118.25062402 359.75712393 116.05694137 362.42154013 113.875 365.125 C110.01424863 369.898903 105.93812925 374.42138428 101.78125 378.9375 C99.36871896 381.62487634 97.0799379 384.37715444 94.8125 387.1875 C91.75901321 390.97210334 88.60581699 394.60957537 85.3125 398.1875 C81.29275464 402.55920463 77.51261805 407.06536886 73.78125 411.68359375 C69.82869293 416.49295512 65.72413446 421.16858896 61.63671875 425.86328125 C58.50957968 429.45517945 55.40731234 433.06774351 52.3125 436.6875 C48.16407313 441.53679951 43.99575538 446.36821589 39.8125 451.1875 C34.12407246 457.74183356 28.46892481 464.32395504 22.82714844 470.91845703 C21.2430789 472.7685808 19.65695298 474.61692445 18.0703125 476.46484375 C17.53543213 477.0880249 17.00055176 477.71120605 16.44946289 478.35327148 C15.43592609 479.5340285 14.42211338 480.71454878 13.40795898 481.89477539 C12.94462158 482.43481201 12.48128418 482.97484863 12.00390625 483.53125 C11.55337891 484.05380371 11.10285156 484.57635742 10.63867188 485.11474609 C9.74525818 486.17427684 8.87168423 487.25082 8.01757812 488.34228516 C3.54552923 494.01529 -1.42014546 496.16651982 -8.53515625 497.03515625 C-17.29918708 497.3124227 -23.46553047 494.69198646 -29.88671875 488.76953125 C-34.31043981 483.65490365 -36.56830132 476.85297336 -36.1875 470.09375 C-34.27164702 460.87370753 -28.62608822 454.03331946 -22.265625 447.40625 C-19.73803519 444.74079166 -17.42491815 441.98783518 -15.125 439.125 C-12.23901207 435.54921531 -9.28305196 432.08348682 -6.1875 428.6875 C-3.07291332 425.27010628 -0.0956338 421.7822765 2.8125 418.1875 C6.42282442 413.72473787 10.19677929 409.46030467 14.0625 405.21875 C16.39112053 402.5990519 18.60812947 399.9123469 20.8125 397.1875 C24.42282442 392.72473787 28.19677929 388.46030467 32.0625 384.21875 C34.39112053 381.5990519 36.60812947 378.9123469 38.8125 376.1875 C42.42282442 371.72473787 46.19677929 367.46030467 50.0625 363.21875 C52.39112053 360.5990519 54.60812947 357.9123469 56.8125 355.1875 C60.42399134 350.72329543 64.19910694 346.45747886 68.06640625 342.21484375 C70.37437598 339.61787607 72.56805863 336.95345987 74.75 334.25 C78.60958603 329.47753797 82.68449991 324.95640891 86.83984375 320.44140625 C90.05959519 316.85542716 93.07155176 313.12048508 96.09765625 309.37109375 C98.26882827 306.74041443 100.51491357 304.20807576 102.8125 301.6875 C105.92708668 298.27010628 108.9043662 294.7822765 111.8125 291.1875 C115.42399134 286.72329543 119.19910694 282.45747886 123.06640625 278.21484375 C125.37437598 275.61787607 127.56805863 272.95345987 129.75 270.25 C133.6756314 265.39461379 137.80701245 260.77393584 142.05078125 256.1953125 C144.24287456 253.76470126 146.29485414 251.26380752 148.3125 248.6875 C146.75017979 245.00793709 144.47665918 242.52234207 141.75 239.625 C138.37204445 235.98823228 135.11953736 232.30226017 132 228.4375 C126.81173893 222.0161135 121.38299945 215.8139378 115.96337891 209.58837891 C109.06160915 201.64144318 102.24562714 193.62072101 95.4543457 185.5793457 C90.60844194 179.84558982 85.7192871 174.14918103 80.82861328 168.45361328 C78.32149015 165.53307725 75.81712672 162.61017689 73.3125 159.6875 C72.31251341 158.52082184 71.3125134 157.35415518 70.3125 156.1875 C61.3125 145.6875 61.3125 145.6875 52.3125 135.1875 C51.81741943 134.60991943 51.32233887 134.03233887 50.81225586 133.43725586 C49.81301604 132.27144896 48.81382977 131.10559614 47.81469727 129.93969727 C45.30350539 127.00949602 42.79136607 124.08011709 40.27734375 121.15234375 C34.9797344 114.98090193 29.70234001 108.79348459 24.45458984 102.57958984 C19.10771893 96.25325635 13.70910168 89.97140421 8.3125 83.6875 C2.02678792 76.36829897 -4.25083822 69.04363021 -10.46191406 61.66088867 C-12.96194304 58.69760846 -15.49076597 55.76372159 -18.0546875 52.85546875 C-36.3545863 32.07541126 -36.3545863 32.07541126 -36.05859375 20.375 C-34.97765298 12.54671313 -30.65841018 7.0179408 -24.75 2.0625 C-17.60652783 -2.69981478 -7.98789324 -2.91892712 0 0 Z " fill="#FDFDFD" transform="translate(756.6875,292.3125)"/>
<path d="M0 0 C2.97 0 5.94 0 9 0 C9 27.06 9 54.12 9 82 C6.36 82 3.72 82 1 82 C0.67 80.02 0.34 78.04 0 76 C-1.051875 76.78375 -2.10375 77.5675 -3.1875 78.375 C-9.45273379 83.04321341 -15.33306106 83.86977879 -23 83 C-29.78490811 80.91493688 -33.24699888 77.11644643 -36.6875 71 C-40.36399301 62.59658741 -40.38473967 50.94251138 -38.31640625 42.06640625 C-37.38779891 39.84314304 -36.36830607 37.98021934 -35 36 C-34.56429687 35.35804688 -34.12859375 34.71609375 -33.6796875 34.0546875 C-29.62213994 28.75548604 -24.99541076 25.62649932 -18.359375 24.5859375 C-10.5343901 24.17064501 -8.82679248 25.65178196 -1 30 C-0.67 20.1 -0.34 10.2 0 0 Z " fill="#FAFAFA" transform="translate(645,349)"/>
<path d="M0 0 C2.97 0 5.94 0 9 0 C9 10.56 9 21.12 9 32 C12.3 30.02 15.6 28.04 19 26 C23.46377118 23.76811441 29.57375772 24.35107319 34.29296875 25.61328125 C39.67036214 27.97434179 43.24642823 31.85239927 46 37 C47.84725469 42.22653291 48.35558129 46.90059847 48.3125 52.375 C48.30404053 53.49926392 48.30404053 53.49926392 48.29541016 54.64624023 C48.09400797 63.82798623 45.75665673 71.45671137 39 78 C33.50721182 81.90851248 28.15388927 83.78521821 21.3984375 83.43359375 C16.54025717 82.55532336 12.48037017 80.48037017 9 77 C8.67 78.65 8.34 80.3 8 82 C5.36 82 2.72 82 0 82 C0 54.94 0 27.88 0 0 Z " fill="#FBFBFB" transform="translate(213,487)"/>
<path d="M0 0 C37.49602122 0 37.49602122 0 43.9375 5.9375 C44.48277344 6.42089844 45.02804687 6.90429688 45.58984375 7.40234375 C49.23307873 11.52999778 49.36519481 15.53117262 49.375 20.875 C49.39949219 21.56980469 49.42398438 22.26460938 49.44921875 22.98046875 C49.48304619 28.96792631 47.51265922 32.35238977 43.47265625 36.609375 C40.45357888 39.0513988 37.69874195 40.80334819 34 42 C35.46298622 45.94847011 37.32389232 49.46878991 39.44140625 53.10546875 C39.76914536 53.67074783 40.09688446 54.23602692 40.43455505 54.81843567 C41.4740626 56.60997088 42.51811137 58.3988067 43.5625 60.1875 C44.60948812 61.98745409 45.65553969 63.78794841 46.70115662 65.58869934 C47.64625328 67.21525822 48.59369801 68.84045211 49.54125977 70.46557617 C50.39896007 71.95574971 51.23106996 73.46213993 52 75 C48.09034263 75.84086381 44.8855532 76.04749973 41 75 C36.85123385 70.65617432 34.40069782 65.05068837 31.91357422 59.63378906 C31.15211709 57.97867511 30.37013245 56.33286124 29.56860352 54.69677734 C28.78872525 53.09809868 28.05598269 51.47532184 27.37866211 49.83056641 C26.19965157 47.16103898 26.19965157 47.16103898 23 44 C16.07 43.505 16.07 43.505 9 43 C9 53.56 9 64.12 9 75 C6.03 75 3.06 75 0 75 C0 50.25 0 25.5 0 0 Z " fill="#FAFAFA" transform="translate(394,356)"/>
<path d="M0 0 C7.04412708 4.04134214 11.17189352 9.45350437 13.9296875 17.06640625 C16.17031175 26.31842212 15.46803424 35.68428189 10.625 43.9375 C6.52836047 50.05062013 1.85502307 54.14678221 -5.375 55.9375 C-12.98714411 56.90157102 -18.9750842 56.24886519 -25.375 51.9375 C-26.2825 51.339375 -27.19 50.74125 -28.125 50.125 C-30.93942636 47.38875215 -32.69337932 44.43728321 -34.375 40.9375 C-34.67664063 40.34066406 -34.97828125 39.74382813 -35.2890625 39.12890625 C-38.75270845 31.34379549 -38.35623517 23.03615997 -35.6875 15.0625 C-32.47055427 7.26112639 -27.82458219 2.8493099 -20.375 -1.0625 C-13.64491413 -3.30586196 -6.43528905 -2.9783963 0 0 Z " fill="#F5F5F5" transform="translate(309.375,514.0625)"/>
<path d="M0 0 C8.06837825 4.13468494 12.45570206 9.4805773 15.4375 18 C17.5072439 28.24824651 16.53487345 37.45253234 10.8046875 46.28515625 C6.62705381 51.66129141 1.47444446 54.13351851 -4.875 56.25 C-12.98221908 57.19426845 -19.14056202 55.91321365 -25.875 51.25 C-32.08547637 45.98778992 -35.35621095 38.86087005 -36.2578125 30.84765625 C-36.56319873 21.47229884 -34.94588226 13.97807141 -29.25 6.4375 C-21.38480445 -1.88107775 -10.58214763 -4.40484089 0 0 Z " fill="#F6F6F6" transform="translate(158.875,513.75)"/>
<path d="M0 0 C6.50199941 3.66964991 12.02111941 9.2300714 14.3125 16.4765625 C15.97268377 26.05226534 16.02788813 36.55225598 10.75 45 C6.00527804 51.35497734 -0.06082011 55.19465144 -7.91796875 56.4140625 C-16.36706124 56.86690526 -22.49188337 53.9229796 -29.0625 48.8125 C-36.1700637 39.67420381 -37.51553312 31.40577764 -36.53222656 20.04833984 C-35.47836032 12.39960471 -31.195603 7.07913998 -25.27734375 2.40625 C-17.40433215 -3.05479851 -8.75630714 -3.94500291 0 0 Z " fill="#F7F7F7" transform="translate(567.25,514)"/>
<path d="M0 0 C6.50199941 3.66964991 12.02111941 9.2300714 14.3125 16.4765625 C15.97268377 26.05226534 16.02788813 36.55225598 10.75 45 C6.00527804 51.35497734 -0.06082011 55.19465144 -7.91796875 56.4140625 C-16.36706124 56.86690526 -22.49188337 53.9229796 -29.0625 48.8125 C-36.1700637 39.67420381 -37.51553312 31.40577764 -36.53222656 20.04833984 C-35.47836032 12.39960471 -31.195603 7.07913998 -25.27734375 2.40625 C-17.40433215 -3.05479851 -8.75630714 -3.94500291 0 0 Z " fill="#F7F7F7" transform="translate(371.25,514)"/>
<path d="M0 0 C6.17888089 4.03701837 10.01585324 9.36633864 12.15234375 16.40625 C13.46328428 25.60116852 13.12233965 35.33406712 8.15234375 43.40625 C3.27956552 49.3326019 -2.60087867 53.81954963 -10.29296875 54.6796875 C-18.38763408 54.9864824 -24.42954073 53.14977154 -30.6640625 47.8671875 C-36.89670523 41.27526963 -39.07938493 33.77718506 -39.34765625 24.84375 C-39.052849 15.39089807 -36.28602646 9.01426162 -29.8203125 2.13671875 C-21.00092979 -5.59988826 -9.92067852 -5.64209205 0 0 Z " fill="#F8F8F8" transform="translate(581.84765625,377.59375)"/>
<path d="M0 0 C9.72086967 5.55847601 14.97691393 12.47529964 18.10449219 23.31616211 C21.02457361 36.84099551 18.78012584 50.85378962 12.24609375 62.85546875 C7.76363376 69.66216725 0.6815486 72.92718571 -6.4375 76.4375 C-3.51001496 80.77017786 -0.57682597 83.36680709 4.5625 84.4375 C8.27307967 84.58937107 11.93684938 84.56252055 15.6484375 84.4453125 C16.61007812 84.44273437 17.57171875 84.44015625 18.5625 84.4375 C19.5625 85.4375 19.5625 85.4375 19.625 89 C19.604375 90.134375 19.58375 91.26875 19.5625 92.4375 C10.34083612 95.1772697 0.9305439 93.95183947 -7.4375 89.4375 C-11.21633305 87.11867063 -12.91868216 84.67173878 -15.125 80.9375 C-18.06277451 76.30805071 -20.83318374 75.08760684 -25.9140625 73.37109375 C-34.25158158 70.28646982 -38.58914271 64.17098233 -42.4375 56.4375 C-47.15544655 46.0145188 -47.51300969 30.05978765 -43.8125 19.25 C-42.69140625 16.7578125 -42.69140625 16.7578125 -41.4375 14.4375 C-41.01339844 13.63054687 -40.58929688 12.82359375 -40.15234375 11.9921875 C-31.88340467 -1.96596594 -14.67766528 -6.92342702 0 0 Z M-26.4375 10.4375 C-26.95828125 10.92347656 -27.4790625 11.40945313 -28.015625 11.91015625 C-35.15796958 19.2431945 -35.93645248 28.1088474 -35.85717773 37.96606445 C-35.51276987 47.97161128 -33.19369775 56.54626284 -26.21875 63.94921875 C-21.34141305 68.02436212 -16.82196167 67.86680124 -10.6328125 67.7421875 C-4.50570506 67.15794009 -1.13013205 64.54668323 2.8125 59.875 C9.66138563 49.89467201 9.58002812 37.55285608 8.28125 25.91796875 C6.65911937 18.01008191 1.97657069 12.03889854 -4.4375 7.4375 C-11.7918112 4.98606293 -20.64416954 4.92677102 -26.4375 10.4375 Z " fill="#F7F7F7" transform="translate(358.4375,356.5625)"/>
<path d="M0 0 C6.00271199 3.56682886 8.67169617 8.69562919 10.5 15.3125 C10.86945718 18.50058222 10.85251281 21.63785934 10.79296875 24.84375 C10.78872391 25.72027222 10.78447906 26.59679443 10.78010559 27.49987793 C10.7634513 30.27107823 10.72582509 33.04152336 10.6875 35.8125 C10.67243599 37.70311442 10.6587506 39.59374036 10.64648438 41.484375 C10.61359139 46.09403639 10.56190255 50.70314062 10.5 55.3125 C7.86 55.3125 5.22 55.3125 2.5 55.3125 C1.84 53.3325 1.18 51.3525 0.5 49.3125 C-0.18707031 49.73402344 -0.87414062 50.15554688 -1.58203125 50.58984375 C-2.48308594 51.13769531 -3.38414062 51.68554688 -4.3125 52.25 C-5.20582031 52.79527344 -6.09914063 53.34054687 -7.01953125 53.90234375 C-12.08697366 56.78320471 -16.80840778 56.79272809 -22.5 56.3125 C-26.58403065 54.92547072 -29.90351799 52.8499473 -32.57421875 49.37890625 C-34.72638836 44.57511838 -34.36350424 39.39828603 -33.5 34.3125 C-30.84943007 28.23115205 -25.16999419 25.72856129 -19.3046875 23.3125 C-12.59989596 20.92193366 -6.60276172 20.05421776 0.5 20.3125 C-0.78236146 13.72807103 -0.78236146 13.72807103 -4.5 8.3125 C-10.44800728 6.32983091 -15.68932354 6.68333915 -21.375 9.3125 C-22.09429687 9.68375 -22.81359375 10.055 -23.5546875 10.4375 C-25.5 11.3125 -25.5 11.3125 -28.5 11.3125 C-29.49 9.3325 -30.48 7.3525 -31.5 5.3125 C-29.56374902 4.33086578 -27.62595461 3.35227546 -25.6875 2.375 C-24.60855469 1.82972656 -23.52960938 1.28445313 -22.41796875 0.72265625 C-15.4895345 -2.62562322 -7.1151784 -3.3230965 0 0 Z " fill="#F4F4F4" transform="translate(455.5,651.6875)"/>
<path d="M0 0 C3.81790471 3.04018338 6.15807429 6.75547286 7.6875 11.34375 C7.77360514 12.77093637 7.80521828 14.20181648 7.80102539 15.6315918 C7.80094986 16.49225754 7.80087433 17.35292328 7.80079651 18.2396698 C7.79563522 19.16475845 7.79047394 20.08984711 7.78515625 21.04296875 C7.7837413 21.99315384 7.78232635 22.94333893 7.78086853 23.9223175 C7.77526875 26.95866029 7.76271632 29.99492948 7.75 33.03125 C7.74498497 35.08919164 7.74042207 37.14713444 7.73632812 39.20507812 C7.7252994 44.25133046 7.70803493 49.29752775 7.6875 54.34375 C5.0475 54.34375 2.4075 54.34375 -0.3125 54.34375 C-0.3125 52.03375 -0.3125 49.72375 -0.3125 47.34375 C-0.90417969 47.75367188 -1.49585938 48.16359375 -2.10546875 48.5859375 C-3.29076172 49.39417969 -3.29076172 49.39417969 -4.5 50.21875 C-5.27730469 50.75242187 -6.05460937 51.28609375 -6.85546875 51.8359375 C-13.20327057 55.73140889 -18.98413885 56.11934318 -26.3125 55.34375 C-31.28841557 53.21121475 -33.48579015 50.24138226 -35.62109375 45.42578125 C-37.08411003 41.02020114 -36.75058648 37.60646986 -35.25 33.28125 C-30.09323553 25.46292967 -23.32306538 22.38771436 -14.3125 20.34375 C-9.97979014 19.79407785 -5.6767055 19.48453082 -1.3125 19.34375 C-2.71840682 12.68984034 -2.71840682 12.68984034 -6.4375 7.21875 C-12.51162264 5.37010398 -17.38084927 5.68085394 -23.125 8.40625 C-23.83269531 8.78910156 -24.54039062 9.17195312 -25.26953125 9.56640625 C-27.7555983 10.51234763 -28.88587175 10.38746108 -31.3125 9.34375 C-32.5625 6.78125 -32.5625 6.78125 -33.3125 4.34375 C-23.10527107 -1.82311748 -11.3686445 -6.63170929 0 0 Z " fill="#F7F7F7" transform="translate(305.3125,652.65625)"/>
<path d="M0 0 C3.81790471 3.04018338 6.15807429 6.75547286 7.6875 11.34375 C7.77360514 12.77093637 7.80521828 14.20181648 7.80102539 15.6315918 C7.80094986 16.49225754 7.80087433 17.35292328 7.80079651 18.2396698 C7.79563522 19.16475845 7.79047394 20.08984711 7.78515625 21.04296875 C7.7837413 21.99315384 7.78232635 22.94333893 7.78086853 23.9223175 C7.77526875 26.95866029 7.76271632 29.99492948 7.75 33.03125 C7.74498497 35.08919164 7.74042207 37.14713444 7.73632812 39.20507812 C7.7252994 44.25133046 7.70803493 49.29752775 7.6875 54.34375 C5.0475 54.34375 2.4075 54.34375 -0.3125 54.34375 C-0.3125 52.03375 -0.3125 49.72375 -0.3125 47.34375 C-0.90417969 47.75367188 -1.49585938 48.16359375 -2.10546875 48.5859375 C-3.29076172 49.39417969 -3.29076172 49.39417969 -4.5 50.21875 C-5.27730469 50.75242187 -6.05460937 51.28609375 -6.85546875 51.8359375 C-13.20327057 55.73140889 -18.98413885 56.11934318 -26.3125 55.34375 C-31.28841557 53.21121475 -33.48579015 50.24138226 -35.62109375 45.42578125 C-37.08411003 41.02020114 -36.75058648 37.60646986 -35.25 33.28125 C-30.09323553 25.46292967 -23.32306538 22.38771436 -14.3125 20.34375 C-9.97979014 19.79407785 -5.6767055 19.48453082 -1.3125 19.34375 C-2.71840682 12.68984034 -2.71840682 12.68984034 -6.4375 7.21875 C-12.51162264 5.37010398 -17.38084927 5.68085394 -23.125 8.40625 C-23.83269531 8.78910156 -24.54039062 9.17195313 -25.26953125 9.56640625 C-27.7555983 10.51234763 -28.88587175 10.38746108 -31.3125 9.34375 C-32.5625 6.78125 -32.5625 6.78125 -33.3125 4.34375 C-23.10527107 -1.82311748 -11.3686445 -6.63170929 0 0 Z " fill="#F7F7F7" transform="translate(204.3125,376.65625)"/>
<path d="M0 0 C5.5562582 3.25633165 9.25422555 7.68598643 11.5625 13.6875 C12.6875 18.4375 12.6875 18.4375 12.6875 29.4375 C0.1475 29.4375 -12.3925 29.4375 -25.3125 29.4375 C-22.61216703 39.6602157 -22.61216703 39.6602157 -15.5546875 46.578125 C-12.58142274 47.71770383 -10.05293538 47.70219565 -6.875 47.6875 C-5.20630859 47.69523437 -5.20630859 47.69523437 -3.50390625 47.703125 C-0.35184289 47.44077456 1.80969091 46.67515915 4.6875 45.4375 C7 45.8125 7 45.8125 8.6875 46.4375 C9.1825 48.9125 9.1825 48.9125 9.6875 51.4375 C8.25078432 52.08507625 6.81309584 52.73049453 5.375 53.375 C4.17423828 53.91447266 4.17423828 53.91447266 2.94921875 54.46484375 C-3.34879145 57.17331446 -10.29889728 57.59538539 -16.92578125 55.68359375 C-24.64460299 52.37552729 -29.51580601 47.92431412 -33.3125 40.4375 C-36.51518325 32.33593888 -36.69003859 23.12748167 -33.625 14.9375 C-30.18557527 7.61524039 -25.46139187 3.19141603 -18.3125 -0.5625 C-12.42614627 -2.52461791 -5.71014423 -2.579486 0 0 Z " fill="#F7F7F7" transform="translate(704.3125,375.5625)"/>
<path d="M0 0 C5.4721038 3.04102584 8.20537748 7.49213892 10.6875 13.125 C11.6875 17.125 11.6875 17.125 11.6875 29.125 C-0.8525 29.125 -13.3925 29.125 -26.3125 29.125 C-23.389561 39.24292128 -23.389561 39.24292128 -16.25 46 C-9.58027304 48.43452237 -2.730598 47.78563284 3.6875 45.125 C6 45.5 6 45.5 7.6875 46.125 C8.1825 48.6 8.1825 48.6 8.6875 51.125 C0.61323151 55.93850621 -5.78210799 57.09994815 -15.3125 56.125 C-23.50878379 53.4628647 -29.37877814 48.6505749 -33.46484375 41.0078125 C-37.30345198 32.48150297 -37.11679744 24.20075954 -34.21484375 15.44140625 C-31.44792635 8.33845379 -25.76779747 2.28102016 -18.8828125 -1.05078125 C-12.52195887 -3.09050787 -6.11591472 -2.61450735 0 0 Z " fill="#F7F7F7" transform="translate(401.3125,651.875)"/>
<path d="M0 0 C1.35790249 0.96637394 2.70124588 1.95548312 4 3 C2.79618552 5.49361571 1.54571278 7.68143083 0 10 C-2.77242864 8.90783114 -5.37394862 7.7974445 -8 6.375 C-13.26804803 4.11229214 -19.41304208 4.10184347 -25 5 C-27.69897206 6.81046748 -29.54083444 8.08166887 -31 11 C-31.3212859 14.21285904 -31.04422856 16.94004667 -30 20 C-25.07896571 25.61451338 -16.34680209 28.19552242 -9.56079102 30.93383789 C-2.99163776 33.67424324 3.17952454 37.15229088 6 44 C6.61300754 49.85208358 7.23928583 56.60627348 4.5 62 C-0.28731759 67.74478111 -5.48299162 71.78757929 -13 73 C-26.17462476 74.02951891 -34.92327519 71.4441828 -45 63 C-43.51153846 58.28653846 -43.51153846 58.28653846 -40.921875 56.8359375 C-40.28765625 56.56007813 -39.6534375 56.28421875 -39 56 C-38.38511719 56.42152344 -37.77023438 56.84304688 -37.13671875 57.27734375 C-36.32847656 57.82519531 -35.52023438 58.37304688 -34.6875 58.9375 C-33.88699219 59.48277344 -33.08648437 60.02804687 -32.26171875 60.58984375 C-28.06606975 63.2057838 -24.48291072 63.19273583 -19.625 63.25 C-18.31789063 63.27578125 -17.01078125 63.3015625 -15.6640625 63.328125 C-11.83155454 62.98491533 -10.02579401 62.30668392 -7 60 C-4.83767119 57.24116669 -4.06057237 55.48457897 -3.625 52 C-4.06293072 48.49655423 -4.92243866 46.84388635 -7 44 C-9.55040407 42.32258576 -9.55040407 42.32258576 -12.55078125 41.0625 C-13.64197266 40.55976563 -14.73316406 40.05703125 -15.85742188 39.5390625 C-17.56768555 38.77722656 -17.56768555 38.77722656 -19.3125 38 C-37.39435111 29.86265067 -37.39435111 29.86265067 -41.3046875 21.10546875 C-42.97856479 16.03681786 -42.58096288 11.76154676 -40.5 6.875 C-37.471624 1.41962763 -32.72211381 -1.6389431 -27.25 -4.375 C-17.11941525 -6.32318937 -9.08806576 -4.85883034 0 0 Z " fill="#F6F6F6" transform="translate(100,359)"/>
<path d="M0 0 C3.3 0 6.6 0 10 0 C10.33 17.49 10.66 34.98 11 53 C19.10051034 43.57607586 19.10051034 43.57607586 26.32104492 33.87744141 C31.52905667 26.41215722 31.52905667 26.41215722 36.13671875 25.12109375 C38.90418876 25.12463725 41.31619591 25.34592009 44 26 C41.17620821 29.89225355 38.3284606 33.6693992 35.1171875 37.25 C34.61485596 37.8169458 34.11252441 38.3838916 33.5949707 38.96801758 C32.58249277 40.10405105 31.55768875 41.22923112 30.52026367 42.3425293 C28.89124185 44.11648795 28.89124185 44.11648795 27 47 C27.27572242 51.32675587 29.17722164 54.21702874 31.52734375 57.78125 C32.23697266 58.87050781 32.94660156 59.95976563 33.67773438 61.08203125 C34.43040172 62.22174261 35.18366254 63.36106225 35.9375 64.5 C37.41049753 66.73605542 38.87635778 68.97641883 40.33984375 71.21875 C40.99331787 72.20810547 41.64679199 73.19746094 42.32006836 74.21679688 C43.85915012 76.76664893 44.99189963 79.20450799 46 82 C42.43789698 82.78192505 39.54143387 82.95827034 36 82 C32.49603894 78.51750741 30.26446174 74.42115468 27.875 70.125 C27.2046875 68.99707031 26.534375 67.86914062 25.84375 66.70703125 C21 58.45288584 21 58.45288584 21 56 C20.0925 56.721875 19.185 57.44375 18.25 58.1875 C17.73953125 58.59355469 17.2290625 58.99960937 16.703125 59.41796875 C12.35105817 63.46059964 10.56179775 66.23959797 10.29296875 72.12695312 C10.27169922 73.20879883 10.27169922 73.20879883 10.25 74.3125 C10.22035156 75.05306641 10.19070313 75.79363281 10.16015625 76.55664062 C10.08994155 78.37052046 10.04264952 80.18526278 10 82 C6.7 82 3.4 82 0 82 C0 54.94 0 27.88 0 0 Z " fill="#F4F4F4" transform="translate(401,487)"/>
<path d="M0 0 C2.91957974 1.83499691 5.41140664 3.88366622 7.9453125 6.22265625 C6.2953125 8.20265625 4.6453125 10.18265625 2.9453125 12.22265625 C2.37425781 11.86171875 1.80320312 11.50078125 1.21484375 11.12890625 C-5.81211531 7.10711728 -12.01646529 5.83432751 -20.0546875 7.22265625 C-26.55463878 9.76902892 -30.0855369 13.95037902 -33.1796875 20.07421875 C-36.89941595 29.20748057 -36.5198984 42.33127444 -33.3671875 51.53515625 C-30.40397239 58.24137991 -26.95721087 62.32458723 -20.0546875 65.22265625 C-9.86366559 66.53495722 -3.44458698 64.81592257 4.9453125 59.22265625 C6.2653125 60.54265625 7.5853125 61.86265625 8.9453125 63.22265625 C6.52398466 68.93007188 1.52343042 71.98964333 -3.9296875 74.59765625 C-13.20633568 76.45298589 -22.65959262 75.6036731 -30.7421875 70.53515625 C-39.82671749 63.95124601 -43.64996839 56.1029423 -46.0546875 45.22265625 C-47.24427935 31.00498257 -46.50643819 18.55758519 -37.046875 7.23046875 C-27.20204811 -2.69157247 -12.85915147 -6.61937871 0 0 Z " fill="#F6F6F6" transform="translate(524.0546875,356.77734375)"/>
<path d="M0 0 C3.3 0 6.6 0 10 0 C10.01981934 1.21059082 10.03963867 2.42118164 10.06005859 3.66845703 C10.13633336 8.1750104 10.2250168 12.68125009 10.31738281 17.1875 C10.35558233 19.13502798 10.39045075 21.08262435 10.421875 23.03027344 C10.46772196 25.83553446 10.52568366 28.64032839 10.5859375 31.4453125 C10.59748871 32.31116974 10.60903992 33.17702698 10.62094116 34.06912231 C10.73369922 38.7247784 11.10133309 42.66228299 13 47 C14.66682687 48.04675713 14.66682687 48.04675713 17 48 C18.2375 48.144375 19.475 48.28875 20.75 48.4375 C26.34255797 48.41651479 30.20052914 44.79947086 34 41 C34.1603556 37.97192956 34.25960448 34.96414546 34.31640625 31.93359375 C34.33718735 31.02497086 34.35796844 30.11634796 34.37937927 29.18019104 C34.44497672 26.26604054 34.5038068 23.35179696 34.5625 20.4375 C34.60567554 18.46678709 34.64928951 16.49608374 34.69335938 14.52539062 C34.80066843 9.68369012 34.90190675 4.84189563 35 0 C38.3 0 41.6 0 45 0 C45 18.48 45 36.96 45 56 C42.36 56 39.72 56 37 56 C37 53.03 37 50.06 37 47 C36.02160156 47.83144531 36.02160156 47.83144531 35.0234375 48.6796875 C34.14945313 49.40414062 33.27546875 50.12859375 32.375 50.875 C31.51648438 51.59429688 30.65796875 52.31359375 29.7734375 53.0546875 C24.22971613 56.94310052 18.6066989 57.77221156 12 57 C7.44345558 55.1359591 4.82708882 51.97320591 2 48 C-0.06593746 42.34428462 -0.26641222 37.27595104 -0.1953125 31.34765625 C-0.1924826 30.44752304 -0.18965271 29.54738983 -0.18673706 28.61997986 C-0.17561278 25.7673468 -0.15052283 22.91503689 -0.125 20.0625 C-0.11496017 18.11914518 -0.10583608 16.17578541 -0.09765625 14.23242188 C-0.07569888 9.48815824 -0.04122301 4.74413376 0 0 Z " fill="#F4F4F4" transform="translate(596,513)"/>
<path d="M0 0 C5.45115822 3.27069493 7.53526702 7.89359757 9.125 13.875 C9.38563968 17.13599877 9.35833159 20.37883299 9.3203125 23.6484375 C9.3174826 24.5721817 9.31465271 25.4959259 9.31173706 26.44766235 C9.30059179 29.38190976 9.27549765 32.3158457 9.25 35.25 C9.23996289 37.24608932 9.23083832 39.24218346 9.22265625 41.23828125 C9.20067097 46.11730649 9.16618017 50.99610054 9.125 55.875 C5.825 55.875 2.525 55.875 -0.875 55.875 C-0.904729 54.00581909 -0.904729 54.00581909 -0.93505859 52.09887695 C-1.01123654 47.46748949 -1.09993532 42.83641119 -1.19238281 38.20532227 C-1.23062217 36.20245476 -1.26548381 34.19951975 -1.296875 32.1965332 C-1.34263496 29.31437083 -1.40061154 26.43267106 -1.4609375 23.55078125 C-1.47248871 22.65788895 -1.48403992 21.76499664 -1.49594116 20.845047 C-1.59910717 16.48109364 -1.70412612 12.78816953 -3.875 8.875 C-5.59976911 7.91997842 -5.59976911 7.91997842 -7.875 7.875 C-8.968125 7.771875 -10.06125 7.66875 -11.1875 7.5625 C-16.98983463 8.05422327 -20.86631539 10.65533199 -24.875 14.875 C-25.535 14.875 -26.195 14.875 -26.875 14.875 C-26.875 28.405 -26.875 41.935 -26.875 55.875 C-29.845 55.875 -32.815 55.875 -35.875 55.875 C-35.875 37.395 -35.875 18.915 -35.875 -0.125 C-33.235 -0.125 -30.595 -0.125 -27.875 -0.125 C-27.875 2.515 -27.875 5.155 -27.875 7.875 C-27.19953125 7.39289063 -26.5240625 6.91078125 -25.828125 6.4140625 C-24.93609375 5.78242188 -24.0440625 5.15078125 -23.125 4.5 C-22.24328125 3.87351562 -21.3615625 3.24703125 -20.453125 2.6015625 C-14.02154674 -1.70564597 -7.45826113 -2.72234586 0 0 Z " fill="#F7F7F7" transform="translate(265.875,375.125)"/>
<path d="M0 0 C3.3 0 6.6 0 10 0 C13.69174412 8.55191562 16.9739132 17.20736122 20.0769043 25.98510742 C20.82334917 28.09313909 21.57843928 30.19794954 22.33398438 32.30273438 C22.81301845 33.65085756 23.29155334 34.99915824 23.76953125 36.34765625 C24.19854736 37.55429932 24.62756348 38.76094238 25.06958008 40.00415039 C26 43 26 43 26 46 C26.66 46 27.32 46 28 46 C28.16435547 44.29348267 28.16435547 44.29348267 28.33203125 42.55249023 C28.91908482 37.88673344 30.20824277 33.61155423 31.6875 29.16015625 C31.95006592 28.35259384 32.21263184 27.54503143 32.4831543 26.71299744 C33.03451213 25.02198582 33.58932834 23.3320982 34.14746094 21.64331055 C35.0047982 19.04797487 35.85088884 16.44917202 36.6953125 13.84960938 C37.2337276 12.20291318 37.7727675 10.55642111 38.3125 8.91015625 C38.56668701 8.13108414 38.82087402 7.35201202 39.08276367 6.54933167 C40.88348516 1.11651484 40.88348516 1.11651484 42 0 C43.51928038 -0.07179964 45.04167482 -0.08392007 46.5625 -0.0625 C47.38878906 -0.05347656 48.21507812 -0.04445313 49.06640625 -0.03515625 C49.70449219 -0.02355469 50.34257813 -0.01195312 51 0 C45.29895068 17.29505278 39.58726599 34.58628791 33.5 51.75 C33.10377441 52.87696289 32.70754883 54.00392578 32.29931641 55.16503906 C26.46426295 71.47128414 26.46426295 71.47128414 21.5 75.375 C20.64921875 76.06722656 20.64921875 76.06722656 19.78125 76.7734375 C15.97669929 79.39323777 13.4110603 80.24765948 8.75 80.125 C7.85796875 80.10695313 6.9659375 80.08890625 6.046875 80.0703125 C5.37140625 80.04710937 4.6959375 80.02390625 4 80 C3.20046862 76.71303767 2.90341064 75.28976808 4 72 C4.67546875 71.90203125 5.3509375 71.8040625 6.046875 71.703125 C11.55095847 70.81914198 11.55095847 70.81914198 16.4375 68.3125 C19.82834915 63.29404326 21.38541358 59.04168947 21 53 C20.23963952 50.26832946 20.23963952 50.26832946 19.07226562 47.5612793 C18.65182983 46.52388107 18.23139404 45.48648285 17.79821777 44.41764832 C17.33886841 43.31431656 16.87951904 42.2109848 16.40625 41.07421875 C15.94013306 39.93088577 15.47401611 38.7875528 14.99377441 37.60957336 C13.75829952 34.58363439 12.51408632 31.56149791 11.26519775 28.54107666 C9.50160136 24.2690292 7.7553678 19.98984871 6.00622559 15.71186829 C5.07444405 13.43587451 4.13969281 11.16109395 3.20178223 8.88761902 C2.78134644 7.8659816 2.36091064 6.84434418 1.92773438 5.79174805 C1.55467163 4.88829147 1.18160889 3.9848349 0.79724121 3.05400085 C0 1 0 1 0 0 Z " fill="#F6F6F6" transform="translate(473,513)"/>
<path d="M0 0 C5.15946772 4.29955644 8.82166241 8.89201671 9.55078125 15.671875 C9.58277512 23.73433002 9.09350215 30.44821535 3.8125 36.8125 C-0.57064495 40.34039715 -3.85008404 41.40760442 -9.4375 41.2421875 C-13.47480301 40.60112925 -16.02585036 38.87438755 -18.75 35.875 C-23.43372531 29.2096986 -23.67728253 21.76168134 -22.75 13.875 C-21.5417955 8.60608453 -19.78451595 4.26507375 -15.5625 0.75 C-10.57909487 -2.27219408 -5.29776531 -2.16726763 0 0 Z " fill="#030303" transform="translate(155.75,521.125)"/>
<path d="M0 0 C4.85893726 2.45041233 6.79620392 5.4703094 9.0625 10.3515625 C11.55295731 18.19065296 11.04131621 27.26107549 7.2734375 34.54296875 C4.8261424 38.1981224 2.17327015 39.98130578 -1.9375 41.3515625 C-7.29177956 41.69699989 -10.61998796 41.85224794 -14.9375 38.3515625 C-20.45375809 32.70701934 -21.99332292 27.65715447 -22.25 19.9140625 C-22.08994566 13.04114088 -20.73625866 7.95156537 -15.9375 2.9140625 C-11.25753414 -1.08340834 -5.85344889 -1.95901717 0 0 Z " fill="#030303" transform="translate(303.9375,520.6484375)"/>
<path d="M0 0 C6.03710354 2.13074242 9.52365533 5.97700853 12.3125 11.6875 C14.10650885 20.33136081 13.55425518 28.29386699 9 36 C6.30045467 38.99566893 3.15751845 41.73678275 -0.953125 42.23828125 C-6.49943552 42.41749877 -9.72308449 41.87906291 -14 38 C-19.70337956 29.79225185 -20.26642303 21.12631262 -18.5390625 11.40625 C-16.89186593 6.36776637 -14.18864653 3.94096458 -10 1 C-6.79610447 -0.60194777 -3.48419843 -0.3516761 0 0 Z " fill="#030303" transform="translate(572,382)"/>
<path d="M0 0 C4.69784081 1.71651876 7.27586044 3.81649996 10 8 C13.01350804 15.57157397 13.39031412 24.74865436 10.875 32.5625 C8.23365093 37.4049733 5.35377007 40.21540998 0 42 C-4.66507623 42.3823833 -7.04127641 42.47936179 -11.25 40.375 C-16.47287051 35.86433911 -19.46954951 30.62938607 -20.2578125 23.75 C-20.58708568 16.72550546 -19.30560356 9.6766407 -14.46875 4.296875 C-9.77118634 0.29012953 -6.0814867 -0.62403315 0 0 Z " fill="#030303" transform="translate(560,520)"/>
<path d="M0 0 C4.69784081 1.71651876 7.27586044 3.81649996 10 8 C13.01350804 15.57157397 13.39031412 24.74865436 10.875 32.5625 C8.23365093 37.4049733 5.35377007 40.21540998 0 42 C-4.66507623 42.3823833 -7.04127641 42.47936179 -11.25 40.375 C-16.47287051 35.86433911 -19.46954951 30.62938607 -20.2578125 23.75 C-20.58708568 16.72550546 -19.30560356 9.6766407 -14.46875 4.296875 C-9.77118634 0.29012953 -6.0814867 -0.62403315 0 0 Z " fill="#030303" transform="translate(364,520)"/>
<path d="M0 0 C4.43259443 2.26805787 6.3366528 4.71396978 8.02734375 9.31640625 C10.14480581 18.41698785 9.8631807 27.13381629 5.02734375 35.31640625 C2.3551516 38.28172152 -0.77077684 40.99054672 -4.8203125 41.58984375 C-9.57564846 41.80790148 -12.64723071 41.23562321 -16.78125 38.79296875 C-17.96738892 38.10195068 -17.96738892 38.10195068 -19.17749023 37.39697266 C-19.76989502 37.04038574 -20.3622998 36.68379883 -20.97265625 36.31640625 C-21.17140873 32.15407057 -21.31601537 27.99428858 -21.41210938 23.82861328 C-21.4521835 22.41406122 -21.5066652 20.99983736 -21.57617188 19.58642578 C-22.13815792 7.85909938 -22.13815792 7.85909938 -19.26171875 4.05175781 C-13.65137771 -0.24590728 -6.90077939 -2.39135919 0 0 Z " fill="#040404" transform="translate(242.97265625,520.68359375)"/>
<path d="M0 0 C2.62695312 1.13037109 2.62695312 1.13037109 5.28125 2.5234375 C6.6125293 3.21445557 6.6125293 3.21445557 7.97070312 3.91943359 C8.64037109 4.27602051 9.31003906 4.63260742 10 5 C10.19875248 9.16233568 10.34335912 13.32211767 10.43945312 17.48779297 C10.47952725 18.90234503 10.53400895 20.31656889 10.60351562 21.72998047 C11.16690304 33.48655025 11.16690304 33.48655025 8.25390625 37.26464844 C6.2225265 38.80104008 4.31699566 39.95476969 2 41 C1.01 41.495 1.01 41.495 0 42 C-4.47541692 42.54600086 -8.07567389 42.39106105 -12.25 40.625 C-17.92148859 35.21130635 -20.29281854 29.31549161 -20.625 21.5 C-20.3067366 13.79802571 -17.91107482 7.77567599 -12.3125 2.4375 C-8.19032703 -0.12493185 -4.81454678 -0.75165071 0 0 Z " fill="#040404" transform="translate(635,382)"/>
<path d="M0 0 C2.64 0 5.28 0 8 0 C8 5.94 8 11.88 8 18 C12.95 18 17.9 18 23 18 C23 20.64 23 23.28 23 26 C18.05 26 13.1 26 8 26 C8.06890702 31.05419674 8.1568874 36.10756854 8.26245117 41.16113281 C8.29567681 42.87978965 8.32371616 44.59855499 8.34643555 46.31738281 C8.38002561 48.79018323 8.43234178 51.26199156 8.48828125 53.734375 C8.49467117 54.50118591 8.5010611 55.26799683 8.50764465 56.05804443 C8.5962237 59.28204228 8.80196574 61.63797749 10.36328125 64.4921875 C11.96724136 66.25486279 11.96724136 66.25486279 14.69921875 66.390625 C15.68535156 66.34421875 16.67148438 66.2978125 17.6875 66.25 C18.68136719 66.21390625 19.67523438 66.1778125 20.69921875 66.140625 C21.45847656 66.09421875 22.21773437 66.0478125 23 66 C24.4606285 68.64738916 25 69.89448334 25 73 C19.63668491 75.42464516 14.8124333 75.69988184 9 75 C3.94083106 72.47041553 1.05417941 69.58884829 -1.06591797 64.38232422 C-2.15240838 60.4481271 -2.25212298 56.80077876 -2.1953125 52.7578125 C-2.19106766 51.60525467 -2.19106766 51.60525467 -2.18673706 50.42941284 C-2.17561311 47.99444479 -2.1505236 45.55985538 -2.125 43.125 C-2.11496011 41.46615118 -2.10583603 39.80729654 -2.09765625 38.1484375 C-2.07569937 34.09881421 -2.04122406 30.04947113 -2 26 C-4.64 26 -7.28 26 -10 26 C-10 23.36 -10 20.72 -10 18 C-7.03 18 -4.06 18 -1 18 C-0.505 9.09 -0.505 9.09 0 0 Z " fill="#F4F4F4" transform="translate(93,495)"/>
<path d="M0 0 C1.43034568 0.80962963 2.85277608 1.63446306 4.25 2.5 C3.63722388 5.46175123 2.99627478 6.88058783 1.25 9.5 C0.486875 9.190625 -0.27625 8.88125 -1.0625 8.5625 C-6.14269842 6.55404946 -10.31489414 5.82991846 -15.75 6.5 C-20.34398305 8.84033099 -24.57632495 12.1286381 -26.33203125 17.171875 C-27.62105013 24.35183063 -28.38750803 33.86076347 -24.625 40.3125 C-21.62077643 44.11393373 -18.54614753 46.08242787 -13.68359375 46.80859375 C-7.61263187 47.15701417 -3.05453018 45.30901835 2.25 42.5 C3.57 44.48 4.89 46.46 6.25 48.5 C-1.59188494 54.45983255 -7.83521062 56.40262663 -17.75 55.5 C-24.49646725 54.01878592 -29.42914082 50.71513519 -33.453125 45.140625 C-38.61751987 36.40459256 -39.2118179 27.3786352 -37.75 17.5 C-35.31142069 8.58081266 -29.23022965 3.17090614 -21.5 -1.4375 C-13.87513057 -3.59787967 -7.15601644 -3.57293303 0 0 Z " fill="#F5F5F5" transform="translate(154.75,376.5)"/>
<path d="M0 0 C3.34125 -0.061875 6.6825 -0.12375 10.125 -0.1875 C11.68758545 -0.22846802 11.68758545 -0.22846802 13.28173828 -0.27026367 C19.94116786 -0.32982579 24.26977763 0.55716946 29.375 5.125 C31.63980307 9.13195928 31.68803387 12.4950163 31 17 C29.17143371 21.00543091 26.91913647 23.94658178 23.04296875 26.07421875 C18.58874981 27.42935339 14.31156478 27.20931131 9.6875 27.125 C4.8921875 27.063125 4.8921875 27.063125 0 27 C0 18.09 0 9.18 0 0 Z " fill="#020202" transform="translate(403,364)"/>
<path d="M0 0 C0.85856655 3.4342662 0.97591583 5.61682513 0 9 C-0.65226562 9.01417969 -1.30453125 9.02835938 -1.9765625 9.04296875 C-8.40430621 9.39374532 -11.62479868 10.19794977 -16 15 C-19.03239166 19.92985311 -19.46428218 23.84503054 -19.51171875 29.4609375 C-19.52966995 30.25150543 -19.54762115 31.04207336 -19.56611633 31.8565979 C-19.61996706 34.36267891 -19.65403281 36.86857227 -19.6875 39.375 C-19.72069548 41.08205722 -19.75518719 42.78908976 -19.79101562 44.49609375 C-19.87567852 48.66392653 -19.94260907 52.8317061 -20 57 C-22.97 57 -25.94 57 -29 57 C-29 38.52 -29 20.04 -29 1 C-26.36 1 -23.72 1 -21 1 C-21 4.3 -21 7.6 -21 11 C-20.34 11 -19.68 11 -19 11 C-18.835 10.29875 -18.67 9.5975 -18.5 8.875 C-14.52265245 1.25175053 -8.20736833 -1.02592104 0 0 Z " fill="#FBFBFB" transform="translate(360,650)"/>
<path d="M0 0 C0.97591583 3.38317487 0.85856655 5.5657338 0 9 C-0.65226563 9.01417969 -1.30453125 9.02835938 -1.9765625 9.04296875 C-8.4163445 9.39440228 -11.57351601 10.24962694 -16 15 C-19.29726688 19.32466538 -19.46883903 23.32417957 -19.51171875 28.58203125 C-19.52966995 29.39621017 -19.54762115 30.2103891 -19.56611633 31.04924011 C-19.6200821 33.63694152 -19.65407025 36.22445993 -19.6875 38.8125 C-19.72068528 40.57229101 -19.75517606 42.33205792 -19.79101562 44.09179688 C-19.87580042 48.39439893 -19.94267665 52.69694801 -20 57 C-22.97 57 -25.94 57 -29 57 C-29 38.52 -29 20.04 -29 1 C-26.36 1 -23.72 1 -21 1 C-20.67 3.97 -20.34 6.94 -20 10 C-19.113125 8.906875 -18.22625 7.81375 -17.3125 6.6875 C-11.93441673 0.50895783 -8.00278495 -0.47075206 0 0 Z " fill="#FAFAFA" transform="translate(689,512)"/>
<path d="M0 0 C2.97 0 5.94 0 9 0 C9.02516402 4.95808565 9.04307348 9.91613222 9.05493164 14.87426758 C9.05988737 16.5526596 9.06665388 18.23104748 9.07543945 19.90942383 C9.13354172 31.31455756 8.8128471 42.62288984 8 54 C5.69 54 3.38 54 1 54 C-0.19388403 16.13545992 -0.19388403 16.13545992 0 0 Z " fill="#F8F8F8" transform="translate(486,630)"/>
<path d="M0 0 C1.22077306 13.32677259 1.22077306 13.32677259 -1.67578125 17.296875 C-7.70108136 21.74700525 -13.62115937 22.83328969 -21 22 C-23.625 20.5 -23.625 20.5 -25 18 C-25.45451667 14.81838333 -25.70692538 13.01341921 -25 10 C-20.70100632 4.65530515 -16.60071469 2.7363974 -10 1.375 C-8.14375 0.98441406 -8.14375 0.98441406 -6.25 0.5859375 C-3 0 -3 0 0 0 Z " fill="#060606" transform="translate(304,678)"/>
<path d="M0 0 C1.22077306 13.32677259 1.22077306 13.32677259 -1.67578125 17.296875 C-7.70108136 21.74700525 -13.62115937 22.83328969 -21 22 C-23.625 20.5 -23.625 20.5 -25 18 C-25.45451667 14.81838333 -25.70692538 13.01341921 -25 10 C-20.70100632 4.65530515 -16.60071469 2.7363974 -10 1.375 C-8.14375 0.98441406 -8.14375 0.98441406 -6.25 0.5859375 C-3 0 -3 0 0 0 Z " fill="#060606" transform="translate(203,402)"/>
<path d="M0 0 C1.85625 0.0309375 1.85625 0.0309375 3.75 0.0625 C4.97155518 13.55050513 4.97155518 13.55050513 2.07421875 17.13671875 C-0.01417547 18.40808123 -1.92793083 19.30771652 -4.25 20.0625 C-5.24 20.3925 -6.23 20.7225 -7.25 21.0625 C-12.04119284 21.69055899 -15.22775739 21.75094911 -19.3125 19 C-21.76596953 15.28022362 -22.03154305 13.4391411 -21.25 9.0625 C-16.5192337 2.55769633 -7.86464877 -0.13107748 0 0 Z " fill="#040404" transform="translate(452.25,678.9375)"/>
<path d="M0 0 C4.5926563 1.79712638 6.74740081 4.66166082 9 9 C9 11.31 9 13.62 9 16 C-0.57 16 -10.14 16 -20 16 C-17.03971348 4.15885392 -12.58155358 -1.27025301 0 0 Z " fill="#040404" transform="translate(699,382)"/>
<path d="M0 0 C3.23300086 1.47593517 5.72160787 3.26592945 8 6 C9 9 9 9 9 16 C-0.24 16 -9.48 16 -19 16 C-17.8410596 6.72847682 -17.8410596 6.72847682 -13 2 C-8.77490246 -0.55775533 -4.81832564 -0.56888997 0 0 Z " fill="#030303" transform="translate(395,658)"/>
<path d="M0 0 C1.9375 1.0625 1.9375 1.0625 3 3 C3.504958 6.9675271 3.61854451 9.10654682 1.3125 12.4375 C-1 14 -1 14 -3.5 14.5 C-6.90524375 13.81895125 -8.02547983 12.8520847 -10 10 C-10.42519574 6.53769185 -10.63902633 4.1652833 -8.9375 1.0625 C-5.88023824 -0.6140629 -3.4093712 -0.36528977 0 0 Z " fill="#F7F7F7" transform="translate(494,694)"/>
</svg>
